<?xml version="1.0" encoding="utf-8"?>
<!-- Generator: Adobe Illustrator 15.0.0, SVG Export Plug-In . SVG Version: 6.00 Build 0)  -->
<!DOCTYPE svg PUBLIC "-//W3C//DTD SVG 1.1//EN" "http://www.w3.org/Graphics/SVG/1.1/DTD/svg11.dtd">
<svg version="1.1" id="图层_1" xmlns="http://www.w3.org/2000/svg" xmlns:xlink="http://www.w3.org/1999/xlink" x="0px" y="0px"
	 width="256px" height="256px" viewBox="0 0 256 256" enable-background="new 0 0 256 256" xml:space="preserve">
<path fill="#FFFFFF" d="M255.882,231.609c0,13.255-10.745,24-24,24h-208c-13.255,0-24-10.745-24-24v-208c0-13.255,10.745-24,24-24
	h208c13.255,0,24,10.745,24,24V231.609z"/>
<g>
	<g>
		<defs>
			<path id="SVGID_1_" d="M22.839,124.478c0,23.11,7.468,44.472,20.116,61.815l-16.018,41.794l0.006-0.001
				c-0.098,0.223-0.185,0.453-0.249,0.692c-0.498,1.84,0.044,3.972,1.609,5.454c1.302,1.232,3.016,1.715,4.6,1.502l0.002,0.002
				l0.003-0.002c0.349-0.047,0.693-0.117,1.022-0.232c0.015-0.004,0.03-0.005,0.045-0.008c0.391-0.143,0.783-0.355,1.122-0.588h0
				l11.413-7.702l22.935-15.433c16.708,11.206,36.806,17.748,58.436,17.748c58.013,0,105.042-47.029,105.042-105.042
				c0-58.013-47.029-105.042-105.042-105.042C69.869,19.436,22.839,66.464,22.839,124.478"/>
		</defs>
		<clipPath id="SVGID_2_">
			<use xlink:href="#SVGID_1_"  overflow="visible"/>
		</clipPath>
		
			<linearGradient id="SVGID_3_" gradientUnits="userSpaceOnUse" x1="-1496.0933" y1="653.7617" x2="-1495.5806" y2="653.7617" gradientTransform="matrix(0 -422.4695 -422.4695 0 276322.0625 -631817.9375)">
			<stop  offset="0" style="stop-color:#F5380C"/>
			<stop  offset="1" style="stop-color:#FE7F22"/>
		</linearGradient>
		<rect x="22.839" y="19.436" clip-path="url(#SVGID_2_)" fill="url(#SVGID_3_)" width="210.084" height="216.512"/>
	</g>
	<path fill="#FFFFFF" d="M157.194,178.551c-0.411-2.81-1.099-5.52-2.058-8.125c-1.51,0.275-3.259,0.584-5.246,0.926
		c-1.989,0.344-4.011,0.512-6.068,0.512c-2.607,0-4.87-0.271-6.789-0.821c-1.922-0.546-3.533-1.575-4.834-3.086
		c-1.306-1.508-2.326-3.565-3.011-6.172c-0.688-2.604-1.057-6.034-1.057-10.286v-42.035h24.948c0.412-1.583,0.685-4.047,0.823-5.831
		c0.135-1.781,0.205-3.564,0.205-5.487c0-1.78-0.07-3.567-0.205-5.213c-0.139-1.646-0.411-3.25-0.823-5.625h-24.948V62.199v-0.105
		v-3.333c0-0.864-0.391-1.628-0.996-2.152c-0.501-0.433-1.146-0.704-1.859-0.704c-0.877,0-1.66,0.397-2.184,1.02l-37.265,47.484
		c-0.334,0.514-0.533,1.124-0.533,1.782c0,1.801,1.455,3.261,3.253,3.273h11.099v48.412c0,13.167,3.162,22.666,9.745,28.494
		c6.583,5.83,16.049,8.742,28.531,8.742c6.719,0,13.201-0.754,19.512-2.262c0.135-0.959,0.221-1.955,0.291-2.984
		c0.068-1.027,0.096-2.294,0.096-3.805C157.82,183.869,157.606,181.363,157.194,178.551"/>
	<polygon fill="#D23810" points="153.109,109.476 99.646,109.476 99.646,119.684 	"/>
</g>
</svg>
